<?xml version="1.0" encoding="UTF-8"?>
<svg width="65px" height="40px" viewBox="0 0 65 40" version="1.1" xmlns="http://www.w3.org/2000/svg" xmlns:xlink="http://www.w3.org/1999/xlink">
    <!-- Generator: Sketch 52.6 (67491) - http://www.bohemiancoding.com/sketch -->
    <title>D&amp;MApart-logo_1</title>
    <desc>Created with Sketch.</desc>
    <defs>
        <linearGradient x1="-102.410693%" y1="-56.3781499%" x2="107.471409%" y2="90.1159046%" id="linearGradient-1">
            <stop stop-color="#2D2220" offset="0%"></stop>
            <stop stop-color="#5B4F42" offset="8.92566835%"></stop>
            <stop stop-color="#72634A" offset="21.0418172%"></stop>
            <stop stop-color="#907D55" offset="36.4952132%"></stop>
            <stop stop-color="#DECFB1" offset="56.2161308%"></stop>
            <stop stop-color="#89735B" offset="78%"></stop>
            <stop stop-color="#7E6850" offset="80%"></stop>
            <stop stop-color="#654530" offset="100%"></stop>
        </linearGradient>
        <linearGradient x1="-46.6807667%" y1="4.22107334%" x2="225.145521%" y2="162.079258%" id="linearGradient-2">
            <stop stop-color="#2D2220" offset="0%"></stop>
            <stop stop-color="#5B4F42" offset="8%"></stop>
            <stop stop-color="#907D55" offset="38%"></stop>
            <stop stop-color="#DECFB1" offset="56%"></stop>
            <stop stop-color="#89735B" offset="78%"></stop>
            <stop stop-color="#7E6850" offset="80%"></stop>
            <stop stop-color="#654530" offset="100%"></stop>
        </linearGradient>
        <linearGradient x1="-175.772303%" y1="-44.4436369%" x2="451.260706%" y2="216.778109%" id="linearGradient-3">
            <stop stop-color="#2D2220" offset="1%"></stop>
            <stop stop-color="#5B4F42" offset="8%"></stop>
            <stop stop-color="#907D55" offset="38%"></stop>
            <stop stop-color="#DECFB1" offset="56%"></stop>
            <stop stop-color="#89735B" offset="78%"></stop>
            <stop stop-color="#7E6850" offset="80%"></stop>
            <stop stop-color="#654530" offset="96%"></stop>
        </linearGradient>
    </defs>
    <g id="Symbols" stroke="none" stroke-width="1" fill="none" fill-rule="evenodd">
        <g id="Шапка-XS" transform="translate(-155.000000, -10.000000)">
            <g id="Group-2">
                <g id="D&amp;MApart-logo_1" transform="translate(155.000000, 10.000000)">
                    <path d="M11.530594,40 L6.34548758,40 L6.34548758,39.8050602 C6.81363369,39.7597531 7.13978288,39.6749016 7.32393514,39.5505058 C7.65008433,39.3299317 7.81315892,39.0247048 7.81315892,38.6348252 C7.81315892,38.4027257 7.73920219,38.0917361 7.59128872,37.7018565 L7.45705726,37.3441687 L6.69937054,35.3423098 L3.22710199,35.3423098 L2.81664213,36.513141 L2.61917765,37.0389419 C2.38214633,37.6609211 2.26381556,38.1499597 2.26418534,38.5060577 C2.26286689,38.7096639 2.30759967,38.9105655 2.39453408,39.0914732 C2.47660891,39.2669085 2.59709839,39.4182964 2.74564366,39.5326214 C2.95087359,39.6852348 3.21397467,39.7756503 3.53494688,39.8038679 L3.53494688,40 L0,40 L0,39.8050602 C0.25771626,39.7944188 0.509405995,39.7182109 0.734390346,39.5826977 C0.944427464,39.4527378 1.1494725,39.2434905 1.34952546,38.9549557 C1.54387353,38.6770837 1.70940835,38.3772335 1.84318665,38.0607365 C2.00330297,37.695895 2.21500411,37.1488315 2.47829008,36.419546 L5.36704002,28.4210526 L5.81632716,28.4210526 L9.24976843,37.3358227 C9.50861699,38.0090705 9.71366203,38.4895643 9.86490355,38.7773042 C9.98910686,39.0293734 10.1588163,39.2523042 10.3641115,39.433065 C10.4949379,39.5373634 10.6417375,39.616251 10.7978677,39.6661581 C11.0384115,39.735704 11.2841385,39.7825796 11.5322581,39.8062525 L11.530594,40 Z M6.57401388,34.992372 L4.91664352,30.5987746 L3.35412267,34.992372 L6.57401388,34.992372 Z" id="Shape" fill="#4A4440" fill-rule="nonzero"></path>
                    <path d="M19.3566687,34.2913124 L19.3566687,37.3367407 C19.3566687,37.9130747 19.3889826,38.3413505 19.4536106,38.6215681 C19.5514723,39.0992094 19.8869312,39.4931223 20.3421459,39.6649313 C20.5971908,39.7516077 20.8639132,39.798852 21.1331446,39.8050401 L21.1331446,40 L15.7264012,40 L15.7264012,39.8050401 C15.9956326,39.798852 16.2623549,39.7516077 16.5173998,39.6649313 C16.7177362,39.5889325 16.8984413,39.4687077 17.04612,39.3131689 C17.2306912,39.1239251 17.3566888,38.8851796 17.4089088,38.6257415 C17.4707614,38.3475113 17.5018859,37.9178444 17.5022824,37.3367407 L17.5022824,31.0849081 C17.5094497,30.7090559 17.4885758,30.3331925 17.4398351,29.9604606 C17.410247,29.7349396 17.3369048,29.5174066 17.223946,29.3201337 C17.0876476,29.1035347 16.8944145,28.9288026 16.6654891,28.8151458 C16.4398859,28.7050462 16.1464829,28.6386684 15.78528,28.6160125 L15.7258065,28.6160125 L15.7258065,28.4210526 L20.8286398,28.4210526 C21.7195541,28.4210526 22.3767372,28.4663644 22.8001891,28.556988 C23.2229581,28.6468815 23.6196379,28.8324568 23.959924,29.0995369 C24.7604384,29.7108484 25.1608938,30.5256654 25.1612903,31.5439879 C25.1612903,32.5774144 24.7550858,33.3351942 23.9426766,33.8173274 C23.5196212,34.0665422 23.0063642,34.216389 22.4029056,34.2668679 C22.2106076,34.2839592 21.7479032,34.2925049 21.0147921,34.2925049 L19.3566687,34.2913124 Z M19.3566687,34.020038 L20.1857304,34.020038 C20.7439891,34.020038 21.1741813,33.9788997 21.4763071,33.896623 C21.7792546,33.8144689 22.0572897,33.6586215 22.2857426,33.4429091 C22.8380539,32.9397099 23.1144079,32.2695725 23.1148043,31.4324971 C23.119936,30.9951278 23.0378415,30.561139 22.8733416,30.1560167 C22.7265293,29.7875728 22.4894636,29.4621593 22.1840428,29.2098353 C21.8357289,28.9198146 21.4079852,28.7423075 20.9571028,28.700674 C20.8270539,28.6891473 20.5308754,28.6835827 20.0685674,28.6839802 L19.3566687,28.6839603 L19.3566687,34.020038 Z" id="Shape" fill="#4A4440" fill-rule="nonzero"></path>
                    <path d="M37.7397168,40 L32.5546103,40 L32.5546103,39.8050602 C33.0227564,39.7597531 33.3489056,39.6749016 33.5330579,39.5505058 C33.8592071,39.3299317 34.0222817,39.0247048 34.0222817,38.6348252 C34.0222817,38.4027257 33.9483249,38.0915373 33.8004115,37.7012603 L33.66618,37.3435726 L32.9084933,35.3417137 L29.4362247,35.3417137 L29.0257649,36.5125448 L28.8288551,37.0383457 C28.5921935,37.6599275 28.4738628,38.1489661 28.4738628,38.5054615 C28.4726155,38.7089885 28.5171437,38.9098259 28.6036568,39.0908771 C28.6860811,39.2660624 28.806505,39.4173679 28.9547664,39.5320252 C29.1599963,39.6846387 29.4230974,39.7750542 29.7440696,39.8032718 L29.7440696,39.9982116 L26.2096774,39.9982116 L26.2096774,39.8032718 C26.4670936,39.7932662 26.7186136,39.7176651 26.9435131,39.5826977 C27.1542898,39.4527378 27.3595197,39.2434905 27.5592029,38.9549557 C27.7532334,38.6769663 27.9185734,38.3771322 28.0523094,38.0607365 C28.2127955,37.695895 28.4246815,37.1488315 28.6879675,36.419546 L31.5761628,28.4210526 L32.0260046,28.4210526 L35.4588912,37.3358227 C35.7177397,38.0082756 35.9229697,38.4887694 36.074581,38.7773042 C36.1987843,39.0293734 36.3684937,39.2523042 36.5737889,39.433065 C36.7048133,39.5373728 36.8517963,39.616258 37.0080998,39.6661581 C37.2484644,39.7356611 37.4940037,39.7825363 37.7419355,39.8062525 L37.7397168,40 Z M32.784246,34.9959489 L31.1268756,30.6023515 L29.5643548,34.9959489 L32.784246,34.9959489 Z" id="Shape" fill="#4A4440" fill-rule="nonzero"></path>
                    <path d="M44.7223906,34.3342266 L44.7223906,37.337015 C44.7223906,37.9132896 44.7567221,38.3415213 44.8253852,38.62171 C44.928723,39.0993022 45.2829535,39.4931745 45.7636411,39.6649658 C46.0329578,39.7516333 46.3146054,39.7988727 46.5989024,39.8050602 L46.5989024,40 L40.8896088,40 L40.8896088,39.8050602 C41.1739059,39.7988727 41.4555535,39.7516333 41.7248701,39.6649658 C41.9364169,39.5889748 42.1272339,39.4687624 42.2831764,39.3132396 C42.478534,39.1241639 42.6120264,38.8854286 42.6675222,38.625883 C42.7328358,38.3476815 42.765702,37.9180588 42.7661207,37.337015 L42.7661207,31.0858261 C42.7661207,30.50359 42.7332545,30.0737686 42.6675222,29.7963619 C42.6122208,29.536924 42.4786919,29.2983306 42.2831764,29.1096015 C42.128215,28.9485178 41.9342042,28.8257409 41.717962,28.7519138 C41.4492275,28.6693224 41.1694528,28.623554 40.8870968,28.6159924 L40.8870968,28.4210526 L45.1940306,28.4210526 C45.9145743,28.4210526 46.3880984,28.4238346 46.6146028,28.4293987 C47.5377864,28.4691418 48.2614701,28.588371 48.7856542,28.7870864 C49.3759892,29.0132245 49.8331849,29.3510407 50.1572412,29.8005349 C50.48739,30.2614753 50.6591612,30.8081136 50.6489777,31.3654186 C50.6489777,32.247715 50.2974981,32.9545457 49.5945388,33.4859106 C49.3775277,33.645887 49.1385684,33.777053 48.8842527,33.8757902 C48.5465169,34.000104 48.1981518,34.0966373 47.8430021,34.164325 C48.2005526,34.3062078 48.4655754,34.4532572 48.6380704,34.6054732 C48.7858269,34.7357224 48.9127678,34.8857436 49.01488,35.0507944 C49.1279229,35.2292408 49.2976966,35.5446021 49.524201,35.9968784 C50.0542465,37.0301984 50.4549207,37.7865092 50.7262237,38.2658107 C50.9975266,38.7451123 51.2252871,39.0912745 51.4095051,39.3042974 C51.5256424,39.453199 51.6732309,39.5774606 51.8428361,39.6691389 C52.0246841,39.7473993 52.2200649,39.7934627 52.4193548,39.8050602 L52.4193548,40 L49.4494671,40 C49.3008367,39.6892091 49.2055876,39.4904937 49.1637198,39.4038538 L48.5357038,38.0553711 C48.1993629,37.320699 47.8205103,36.6042313 47.4008789,35.9092449 C47.0194638,35.2936246 46.6709149,34.8725467 46.3552322,34.6460111 C46.1999234,34.5353929 46.0242018,34.4533049 45.837119,34.4039758 C45.6151678,34.3516037 45.3868904,34.3273485 45.1582337,34.3318421 L44.7223906,34.3342266 Z M44.7223906,34.1476329 L45.0596352,34.1476329 C45.798182,34.1476329 46.3269715,34.1078898 46.6460036,34.0284037 C46.9847781,33.939429 47.2944932,33.7709029 47.5465786,33.5383715 C48.1720825,32.97243 48.4848345,32.2711634 48.4848345,31.4345716 C48.4876234,31.0012276 48.3947776,30.5721322 48.2122756,30.1749147 C48.0446195,29.799669 47.7864855,29.4670347 47.4586563,29.2037926 C47.1977446,29.0062879 46.8927088,28.868035 46.5668736,28.7996055 C46.2210461,28.7232987 45.7295189,28.6851454 45.092292,28.6851454 L44.7255307,28.6851454 L44.7223906,34.1476329 Z" id="Shape" fill="#4A4440" fill-rule="nonzero"></path>
                    <path d="M58.291182,28.685687 C57.9410653,28.685687 57.5676076,28.6970115 57.1708088,28.7196604 C56.3184693,28.7649582 55.6833966,28.8752225 55.2655908,29.0504534 C54.8366616,29.2351735 54.4750904,29.5523833 54.2315797,29.9576011 C53.9822189,30.35495 53.7912108,30.8913711 53.6585555,31.5668643 L53.4677419,31.5501757 L53.617125,28.4210526 L64.8506169,28.4210526 L65,31.5501757 L64.8091864,31.5668643 C64.6598033,30.7813055 64.4263923,30.1864741 64.1089532,29.7823702 C63.7915141,29.3782663 63.3279986,29.0884002 62.7184067,28.912772 C62.2037352,28.76019 61.3319448,28.683899 60.1030355,28.683899 L60.1030355,37.3357752 C60.1030355,37.9119312 60.134935,38.3400747 60.198734,38.6202057 C60.2506259,38.8792942 60.3718189,39.1186181 60.5488507,39.3115929 C60.6946761,39.4704377 60.874387,39.5928105 61.0740256,39.669207 C61.3221174,39.7526137 61.5808455,39.7983988 61.8419481,39.8051003 L61.8419481,40 L56.5400153,40 L56.5400153,39.8051003 C56.8038257,39.7988007 57.0653054,39.7530157 57.3161072,39.669207 C57.5156787,39.5926766 57.6953615,39.4703229 57.8412821,39.3115929 C58.0173788,39.1195781 58.1384855,38.8818678 58.1913987,38.6243779 C58.2548087,38.3462336 58.2865137,37.9166994 58.2865137,37.3357752 L58.291182,28.685687 Z" id="Path" fill="#4A4440"></path>
                    <path d="M64.9976061,0.425786977 C64.3057568,0.462688515 63.7503622,0.558389207 63.3314223,0.712889053 C62.8947875,0.878515661 62.4998376,1.14071706 62.1751482,1.48052215 C61.9203199,1.72323174 61.7167012,2.01606123 61.5766626,2.34122011 C61.4426019,2.65549145 61.3514326,3.05350089 61.3031547,3.53524845 C61.2115196,4.29029111 61.1689349,5.05065 61.1756773,5.81138397 L61.1756773,19.4517739 C61.1756773,20.7222412 61.248493,21.666069 61.3941245,22.2832573 C61.539756,22.9004457 61.8008952,23.3939531 62.1775421,23.7637795 C62.844654,24.4178694 63.7854733,24.7757332 65,24.8373709 L65,25.2631579 L53.3612514,25.2631579 L53.3612514,24.8373709 C54.0650704,24.8004694 54.6326342,24.6990915 55.0639428,24.5332374 C55.4988725,24.3639133 55.8931218,24.1019697 56.2202169,23.764996 C56.5964648,23.3700279 56.8544121,22.8673965 56.9940587,22.2571018 C57.1337054,21.6468072 57.2035287,20.7121034 57.2035287,19.4529905 L57.2035287,2.90812505 L47.82526,25.2631579 L47.4428277,25.2631579 L38.1196198,3.23902236 L38.1196198,19.4517739 C38.1196198,20.7222412 38.1892436,21.6599863 38.3284912,22.2650093 C38.4677389,22.8700323 38.7258856,23.3696224 39.1029315,23.7637795 C39.4244897,24.1097277 39.8201473,24.3757291 40.2592056,24.5411448 C40.6901152,24.7033494 41.2514947,24.8020914 41.943344,24.8373709 L41.943344,25.2631579 L33.5483871,25.2631579 L33.5483871,24.8373709 C34.2410344,24.8004694 34.8026133,24.7017274 35.2331239,24.5411448 C35.6721823,24.3757291 36.0678399,24.1097277 36.389398,23.7637795 C36.7656459,23.3688114 37.0235932,22.86618 37.1632399,22.2558853 C37.3028865,21.6455906 37.3727098,20.7108868 37.3727098,19.4517739 L37.3727098,5.81138397 C37.3727098,5.243668 37.3545557,4.70697366 37.3182476,4.20130093 C37.2572021,3.28849475 37.1175555,2.62223951 36.8993077,2.20253521 C36.595676,1.62265389 36.1799281,1.19382558 35.6520638,0.916050268 C35.1241996,0.638274954 34.422974,0.474853857 33.5483871,0.425786977 L33.5483871,0 L41.4519873,0 L49.3370345,19.7851043 L57.5129457,0 L64.9976061,0 L64.9976061,0.425786977 Z" id="Path" fill="url(#linearGradient-1)"></path>
                    <path d="M0,24.8373481 C0.733125224,24.8004466 1.3212047,24.7017047 1.76423842,24.5411223 C2.21795958,24.3739722 2.62666655,24.1081177 2.95930734,23.7637577 C3.35080619,23.3687899 3.61949409,22.866159 3.76537105,22.2558649 C3.911248,21.6455708 3.98397868,20.7108678 3.98356308,19.4517561 L3.98356308,5.81137864 C3.98356308,4.45413321 3.89815648,3.46063117 3.72734329,2.83087253 C3.57022757,2.22354587 3.2212715,1.67983906 2.72989401,1.27675149 C2.11147545,0.771079232 1.20151078,0.487424264 0,0.425786586 L0,0 L10.4302025,0 C12.7442848,0 14.2176005,0.0247361731 14.8501496,0.0742085194 C17.5179109,0.271286882 19.7814973,1.01154728 21.640909,2.2949897 C23.4105503,3.51638894 24.7889005,5.11815752 25.7759597,7.10029546 C26.7630189,9.0824334 27.2569641,11.2371163 27.2577953,13.5643441 C27.2681019,15.207226 26.9823918,16.8390906 26.4137039,18.3854648 C25.8509762,19.8968044 25.0700565,21.1522666 24.0709448,22.1518513 C22.6657882,23.5601911 20.9144335,24.4553567 18.8168807,24.8373481 C17.2335896,25.122719 15.6267327,25.2652494 14.0166561,25.2631347 L0,25.2631579 L0,24.8373481 Z M8.13731594,0.573595359 L8.13731594,18.9706172 C8.13731594,20.1798511 8.20692959,21.0989419 8.34615688,21.7278895 C8.46647648,22.3188242 8.73363073,22.871905 9.12416732,23.3385793 C9.93251685,24.300857 11.2476953,24.7819959 13.0697026,24.7819959 C14.6253079,24.7819959 15.9552403,24.5322011 17.0594998,24.0326115 C18.1637593,23.5330219 19.1533121,22.7219998 20.0281582,21.5995453 C20.9057337,20.4809409 21.5706236,19.2178591 21.9912631,17.870263 C22.4475874,16.4225331 22.6748365,14.9153404 22.6651648,13.4007204 C22.6738478,11.7028387 22.3982053,10.0149755 21.8491266,8.40381068 C21.3071791,6.82393969 20.5304155,5.44195809 19.5188357,4.25786586 C18.1145102,2.61595168 16.4390032,1.52979038 14.4923147,0.999381945 C13.4300312,0.715524221 12.076825,0.573595359 10.4326961,0.573595359 L8.13731594,0.573595359 Z" id="Shape" fill="url(#linearGradient-2)" fill-rule="nonzero"></path>
                    <path d="M31.4025327,12.7283598 L34.2908216,17.1941329 C34.6936718,16.3557867 34.975516,15.712493 35.136354,15.2642516 C35.2971921,14.8160102 35.3776111,14.4351736 35.3776111,14.1217417 C35.3776111,13.5003544 34.9781588,13.125837 34.1792544,12.9981893 L34.1792544,12.7959752 L37.5342001,12.7959752 L37.5342001,12.9887105 C37.3133354,13.0036631 37.0955344,13.0538854 36.8874499,13.1378435 C36.7116435,13.217733 36.5507055,13.3334505 36.4128644,13.4790798 C36.1195049,13.7874564 35.7572417,14.4419141 35.3260749,15.4424528 L35.0587666,16.058574 C34.9149185,16.4048658 34.7049984,16.8571093 34.4290064,17.4153046 C34.6476102,17.7363196 34.9049133,18.0811368 35.2009158,18.4497563 C35.4969182,18.8183759 35.7600734,19.1214865 35.9903814,19.3590881 C36.2503803,19.6360735 36.5374191,19.879623 36.8461077,20.0851633 C37.0619797,20.2271855 37.3068818,20.3050746 37.5574197,20.3113903 C37.7832292,20.3202809 38.0043623,20.2381828 38.1803839,20.0801079 C38.3468853,19.9263409 38.4935651,19.6763115 38.6204232,19.3300198 L38.7903226,19.4165927 C38.5033815,20.5072853 37.8851366,21.0526316 36.9355881,21.0526316 C36.5970034,21.0480737 36.2615432,20.9797065 35.9433759,20.8504174 C35.6058252,20.7200306 35.2886236,20.5315483 35.0032662,20.2918008 C34.5717218,19.9328707 34.1260192,19.4483993 33.6661583,18.8383867 C33.4734818,19.1585686 33.2655273,19.4669683 33.0431941,19.7622525 C32.7191517,20.1712169 32.3201307,20.4977064 31.8731539,20.7196102 C31.4232756,20.9418409 30.9362855,21.0551278 30.4443004,21.0519997 C29.9815143,21.0525412 29.5228878,20.9545254 29.0930343,20.7632126 C28.6888112,20.5931399 28.3242628,20.3233297 28.0266328,19.9739455 C27.5139143,19.3643541 27.2577438,18.5944658 27.2581214,17.6642808 C27.2536391,16.7620869 27.5142325,15.8831081 28.0000152,15.1618807 C28.2050414,14.855436 28.4408505,14.5762036 28.7028321,14.3296431 C29.0607115,14.0008485 29.4365339,13.6971542 29.8281321,13.4203113 L29.9663169,13.3141489 C29.6871607,12.8876305 29.433644,12.4409381 29.2074332,11.9770079 C28.8563079,11.2187048 28.680934,10.5417087 28.6813116,9.94601952 C28.6839709,9.56126103 28.7667577,9.18246039 28.923135,8.83952898 C29.1091851,8.37846213 29.4212128,7.99490627 29.8145402,7.74378106 C30.2064413,7.49354106 30.6759299,7.36842105 31.2230058,7.36842105 C31.9369606,7.36842105 32.5244347,7.5849587 32.9854283,8.018034 C33.4350838,8.42507056 33.6902618,9.04167604 33.6763523,9.68756456 C33.6835326,10.1618702 33.5597592,10.6271569 33.321829,11.0202822 C33.0854801,11.4087019 32.7022627,11.7889066 32.1721768,12.1608964 C31.7980207,12.4305152 31.5414726,12.6196697 31.4025327,12.7283598 Z M30.1566042,13.5852423 C29.6797607,13.9152394 29.2961613,14.3888269 29.0499931,14.9514516 C28.7816086,15.5587539 28.6457668,16.2282781 28.6535613,16.9053458 C28.6525885,17.3926604 28.7225932,17.8769131 28.8608385,18.3391705 C28.9822047,18.7669127 29.1732331,19.16601 29.424338,19.516436 C29.6399815,19.8026607 29.9092789,20.0326085 30.2132373,20.1900619 C30.5166543,20.3494518 30.8480024,20.4316842 31.1833626,20.4308231 C31.7041033,20.4359636 32.2101678,20.2384286 32.6144814,19.8722065 C32.769379,19.7315947 32.910947,19.5736314 33.0369644,19.4007948 C33.2073908,19.1579812 33.3656394,18.9048262 33.5109836,18.6424917 L30.1566042,13.5852423 Z M31.2365977,12.5166669 C31.4568975,12.331129 31.6600813,12.1215605 31.8431384,11.8910668 C31.987427,11.6949119 32.1076064,11.4781455 32.2004933,11.2465093 C32.4022088,10.7681139 32.5051664,10.2453173 32.5017815,9.71663284 C32.5017815,9.07460292 32.364163,8.56443348 32.0889261,8.18612451 C31.8136892,7.80781554 31.4440637,7.61823978 30.9800497,7.61739722 C30.5787097,7.61739722 30.2547683,7.76168544 30.0082254,8.05026188 C29.7616826,8.33883832 29.6384112,8.71419833 29.6384112,9.17634192 C29.640054,9.46056786 29.6912184,9.7417248 29.7890553,10.0041561 C29.8891071,10.2796729 30.0793944,10.6588244 30.3599171,11.1416107 C30.6306234,11.6029117 30.9234166,12.0612638 31.2382967,12.5166669 L31.2365977,12.5166669 Z" id="Shape" fill="#4A4440" fill-rule="nonzero"></path>
                    <path d="M17.6713913,21.46813 L17.574836,14.4994473 L19.9193548,14.4994473 L11.545122,5.26315789 L8.38709677,8.74627517 L8.38709677,9.38157225 L11.3581154,6.09859193 L18.5720195,14.0404176 L16.8517809,14.0404176 L16.9727525,22.1052632 C17.2183015,21.9103751 17.4517063,21.6975184 17.6713913,21.46813 Z" id="Path" fill="url(#linearGradient-3)"></path>
                </g>
            </g>
        </g>
    </g>
</svg>