<?xml version="1.0" encoding="UTF-8"?>
<svg width="24px" height="24px" viewBox="0 0 24 24" version="1.1" xmlns="http://www.w3.org/2000/svg" xmlns:xlink="http://www.w3.org/1999/xlink">
    <!-- Generator: Sketch 52.6 (67491) - http://www.bohemiancoding.com/sketch -->
    <title>Phone - simple-line-icons</title>
    <desc>Created with Sketch.</desc>
    <g id="Symbols" stroke="none" stroke-width="1" fill="none" fill-rule="evenodd">
        <g id="Шапка-XS" transform="translate(-336.000000, -18.000000)" fill="#000000">
            <g id="Group-2">
                <g id="Phone---simple-line-icons-2" transform="translate(336.000000, 18.000000)">
                    <path d="M6.140625,1.1671875 C6.57812719,1.77656555 7.05859113,2.47187109 7.58203125,3.253125 C8.10547137,4.03437891 8.67187195,4.90155773 9.28125,5.8546875 C9.43750078,6.10468875 9.50390637,6.38593594 9.48046875,6.6984375 C9.45703113,7.01093906 9.34375102,7.3468732 9.140625,7.70625 C9.06249961,7.86250078 8.92968844,8.11249828 8.7421875,8.45625 C8.55468656,8.80000172 8.31250148,9.24530977 8.015625,9.7921875 C8.34375164,10.2609398 8.76171621,10.7843721 9.26953125,11.3625 C9.77734629,11.9406279 10.3671841,12.5656216 11.0390625,13.2375 C11.7265659,13.9250034 12.3554659,14.5226537 12.9257812,15.0304688 C13.4960966,15.5382838 14.0078102,15.9562484 14.4609375,16.284375 C14.9921902,15.9718734 15.433592,15.7179697 15.7851562,15.5226563 C16.1367205,15.3273428 16.3906242,15.1906254 16.546875,15.1125 C16.7343759,15.0031245 16.9257803,14.921094 17.1210937,14.8664063 C17.3164072,14.8117185 17.4999991,14.784375 17.671875,14.784375 C17.8125007,14.784375 17.9414057,14.7999998 18.0585937,14.83125 C18.1757818,14.8625002 18.289062,14.9093747 18.3984375,14.971875 C19.101566,15.3937521 19.8437461,15.8664036 20.625,16.3898438 C21.4062539,16.9132839 22.242183,17.4874969 23.1328125,18.1125 C23.2890633,18.2218755 23.414062,18.3624991 23.5078125,18.534375 C23.601563,18.7062509 23.6640623,18.893749 23.6953125,19.096875 C23.7109376,19.3156261 23.6875003,19.5382801 23.625,19.7648438 C23.5624997,19.9914074 23.4531258,20.2218738 23.296875,20.45625 C23.2343747,20.5656255 23.1406256,20.6984367 23.015625,20.8546875 C22.8906244,21.0109383 22.7421884,21.190624 22.5703125,21.39375 C22.4140617,21.596876 22.2109387,21.8273425 21.9609375,22.0851563 C21.7109362,22.34297 21.4140642,22.6281234 21.0703125,22.940625 C20.7421859,23.2531266 20.4414076,23.4874992 20.1679687,23.64375 C19.8945299,23.8000008 19.656251,23.878125 19.453125,23.878125 L19.40625,23.878125 C18.5937459,23.8468748 17.742192,23.6710954 16.8515625,23.3507813 C15.960933,23.0304671 15.0234424,22.5734405 14.0390625,21.9796875 C13.0546826,21.3859345 12.0234429,20.6437545 10.9453125,19.753125 C9.86718211,18.8624955 8.74219336,17.8390683 7.5703125,16.6828125 C6.39843164,15.5109316 5.37109816,14.3859429 4.48828125,13.3078125 C3.60546434,12.2296821 2.86328426,11.1984424 2.26171875,10.2140625 C1.66015324,9.22968258 1.20312656,8.28828574 0.890625,7.38984375 C0.578123437,6.49140176 0.406250156,5.64375398 0.375,4.846875 C0.375,4.62812391 0.453124219,4.38203262 0.609375,4.10859375 C0.765625781,3.83515488 0.999998437,3.52656422 1.3125,3.1828125 C1.62500156,2.83906078 1.90624875,2.54609496 2.15625,2.30390625 C2.40625125,2.06171754 2.63281148,1.86250078 2.8359375,1.70625 C3.02343844,1.5656243 3.20312414,1.43281313 3.375,1.3078125 C3.54687586,1.18281188 3.69531187,1.07343797 3.8203125,0.9796875 C3.99218836,0.854686875 4.17187406,0.764844023 4.359375,0.71015625 C4.54687594,0.655468477 4.74999891,0.628125 4.96875,0.628125 C5.21875125,0.628125 5.44140527,0.67109332 5.63671875,0.75703125 C5.83203223,0.84296918 5.9999993,0.979686562 6.140625,1.1671875 Z M4.640625,2.128125 C4.32812344,2.34687609 4.02343898,2.58515496 3.7265625,2.84296875 C3.42968602,3.10078254 3.14062641,3.37031109 2.859375,3.6515625 C2.57812359,3.93281391 2.35546957,4.17499898 2.19140625,4.378125 C2.02734293,4.58125102 1.92187523,4.7531243 1.875,4.89375 C1.90625016,5.59687852 2.07031102,6.34687102 2.3671875,7.14375 C2.66406398,7.94062898 3.09374719,8.78827676 3.65625,9.68671875 C4.21875281,10.5851607 4.91405836,11.5304638 5.7421875,12.5226563 C6.57031664,13.5148487 7.53124453,14.557807 8.625,15.6515625 C9.71875547,16.745318 10.7617138,17.7062459 11.7539062,18.534375 C12.7460987,19.3625041 13.6914018,20.0578097 14.5898437,20.6203125 C15.4882857,21.1828153 16.3398397,21.6124985 17.1445312,21.909375 C17.9492228,22.2062515 18.7031215,22.3781248 19.40625,22.425 C19.5156255,22.3781248 19.671874,22.2687509 19.875,22.096875 C20.078126,21.9249991 20.3203111,21.6984389 20.6015625,21.4171875 C20.8828139,21.1359361 21.1484362,20.8429703 21.3984375,20.5382813 C21.6484387,20.2335922 21.8906238,19.9250016 22.125,19.6125 C22.1718752,19.5499997 22.2031249,19.4914065 22.21875,19.4367188 C22.2343751,19.382031 22.2343751,19.3312502 22.21875,19.284375 C21.3124955,18.6437468 20.4804725,18.07344 19.7226562,17.5734375 C18.96484,17.073435 18.281253,16.628127 17.671875,16.2375 C17.6093747,16.2375 17.5390629,16.2492186 17.4609375,16.2726563 C17.3828121,16.2960939 17.2968755,16.3312498 17.203125,16.378125 C17.0781244,16.4562504 16.8437517,16.5890616 16.5,16.7765625 C16.1562483,16.9640634 15.7109402,17.2062485 15.1640625,17.503125 L14.390625,17.971875 L13.6171875,17.45625 C13.117185,17.1124983 12.5664093,16.6710964 11.9648437,16.1320313 C11.3632782,15.5929661 10.7031286,14.9640661 9.984375,14.2453125 C9.28124648,13.5265589 8.66406516,12.8664093 8.1328125,12.2648437 C7.60155984,11.6632782 7.16406422,11.1125025 6.8203125,10.6125 L6.2578125,9.8859375 L6.7265625,9.065625 C7.02343898,8.51874727 7.26562406,8.07734543 7.453125,7.74140625 C7.64062594,7.40546707 7.77343711,7.1671882 7.8515625,7.0265625 C7.89843773,6.93281203 7.93359363,6.84687539 7.95703125,6.76875 C7.98046887,6.69062461 7.9921875,6.62031281 7.9921875,6.5578125 C7.44530977,5.6984332 6.92578371,4.89375375 6.43359375,4.14375 C5.94140379,3.39374625 5.46875227,2.69062828 5.015625,2.034375 L4.96875,2.034375 C4.90624969,2.034375 4.84765652,2.04218742 4.79296875,2.0578125 C4.73828098,2.07343758 4.68750023,2.09687484 4.640625,2.128125 Z" id="Phone---simple-line-icons"></path>
                </g>
            </g>
        </g>
    </g>
</svg>